<svg height="512" viewBox="0 0 64 64" width="512" xmlns="http://www.w3.org/2000/svg"><g id="Bar_graph" data-name="Bar graph"><path d="m7 35h8v22h-8z" fill="#ed1c24"/><path d="m21 29h8v28h-8z" fill="#006df0"/><path d="m35 23h8v34h-8z" fill="#ffcd00"/><path d="m49 15h8v42h-8z" fill="#5eac24"/><path d="m11 35h4v22h-4z" fill="#d51920"/><path d="m25 29h4v28h-4z" fill="#0062d8"/><path d="m39 23h4v34h-4z" fill="#e5b800"/><path d="m53 15h4v42h-4z" fill="#559b20"/><path d="m8 60h-1a1 1 0 0 0 0 2h1a1 1 0 0 0 0-2z" fill="#d80027"/><path d="m15 60h-4a1 1 0 0 0 0 2h4a1 1 0 0 0 0-2z" fill="#d80027"/><path d="m22 60h-1a1 1 0 0 0 0 2h1a1 1 0 0 0 0-2z" fill="#006df0"/><path d="m29 60h-4a1 1 0 0 0 0 2h4a1 1 0 0 0 0-2z" fill="#006df0"/><path d="m36 60h-1a1 1 0 0 0 0 2h1a1 1 0 0 0 0-2z" fill="#ebbf00"/><path d="m43 60h-4a1 1 0 0 0 0 2h4a1 1 0 0 0 0-2z" fill="#ebbf00"/><path d="m50 60h-1a1 1 0 0 0 0 2h1a1 1 0 0 0 0-2z" fill="#4e901e"/><path d="m57 60h-4a1 1 0 0 0 0 2h4a1 1 0 0 0 0-2z" fill="#4e901e"/><path d="m7.242 23.757a.993.993 0 0 0 .707-.293l7.779-7.778 5.657 5.657a1 1 0 0 0 1.414 0l8.485-8.485 6.364 6.364a1 1 0 0 0 1.414 0l13.891-13.892.047 2.688a1 1 0 0 0 1 .982h.018a1 1 0 0 0 .982-1.018l-.088-5.041a1 1 0 0 0 -1-.983h-.012l-4.909.042a1 1 0 0 0 .009 2h.009l2.468-.021-13.122 13.121-6.364-6.364a1 1 0 0 0 -1.414 0l-8.485 8.485-5.657-5.657a1 1 0 0 0 -1.414 0l-8.486 8.486a1 1 0 0 0 .707 1.707z" fill="#ed1c24"/><path d="m3 28a1 1 0 0 0 .707-.293l1.414-1.414a1 1 0 1 0 -1.414-1.414l-1.414 1.414a1 1 0 0 0 .707 1.707z" fill="#ed1c24"/><rect fill="#003f8a" height="2" rx="1" width="59" x="2" y="56"/></g></svg>