<svg height="512" viewBox="0 0 512 512" width="512" xmlns="http://www.w3.org/2000/svg"><g id="Flat"><path d="m141.088 197.088h101.823v101.823h-101.823z" fill="#d6393b" transform="matrix(.707 -.707 .707 .707 -119.127 208.402)"/><path d="m184 312-23.03 23.03a24.01819 24.01819 0 0 1 -31.11 2.43 24.89709 24.89709 0 0 1 -2.83-2.42993l-8.68991-8.69007-5.65015-5.65-7.72-7.72a23.59174 23.59174 0 0 1 -3.21-3.99 23.99487 23.99487 0 0 1 3.21006-29.95l23.03-23.03z" fill="#e94042"/><path d="m304 80 56 56a33.9411 33.9411 0 0 0 0-48l-8-8a33.9411 33.9411 0 0 0 -48 0z" fill="#d6393b"/><path d="m256 240a120.77608 120.77608 0 0 1 96.33613-34.87849l31.66387 2.87849-152-152 2.87853 31.66383a120.77608 120.77608 0 0 1 -34.87853 96.33617z" fill="#c9d9e5"/><rect fill="#e94042" height="260.215" rx="16.971" transform="matrix(.707 -.707 .707 .707 8.873 261.421)" width="33.941" x="303.029" y="-10.108"/><path d="m131.72 301.65991-19.03 19.03-7.72-7.72a23.59174 23.59174 0 0 1 -3.21-3.99l18.64-18.64z" fill="#d6393b"/><path d="m149.65991 317.65991-19.79991 19.80009a24.89709 24.89709 0 0 1 -2.83-2.42993l-8.68991-8.69007 20-20z" fill="#d6393b"/><path d="m375.03 392.97-59.72 59.72a38.63246 38.63246 0 0 1 -27.31 11.31 38.63351 38.63351 0 0 0 -27.31006 11.31006l-4.68994 4.68994-80-80 4.68994-4.68994a38.59374 38.59374 0 0 0 8.37012-12.53c.16992-.41.32995-.82007.49-1.23a38.79715 38.79715 0 0 0 2.44994-13.55006 38.63351 38.63351 0 0 1 11.31006-27.31006l12.68994-12.68994 40-24 15.03-15.03a23.99927 23.99927 0 0 1 32.92993-.95c.3501.30994.68.62 1.01.95l15.03007 15.03 5.65 5.6499 1.38 1.38013 16.97 16.96997 5.65 5.6499 25.38 25.3801a24.00327 24.00327 0 0 1 0 33.94z" fill="#f9d3b4"/><g fill="#f4b386"><path d="m373.65 357.6499a39.63326 39.63326 0 0 1 -11.30991 22.6301l-7.03 7.03-11.31009-11.31 7.03-7.03a24.04562 24.04562 0 0 0 0-33.93994z"/><path d="m349.65 333.6499a39.63326 39.63326 0 0 1 -11.30991 22.6301l-7.03 7.03-11.31009-11.31 7.03-7.03a24.04562 24.04562 0 0 0 0-33.93994l16.97 16.96994z"/><path d="m325.65 309.6499a39.63326 39.63326 0 0 1 -11.30991 22.6301l-7.03 7.03-11.31009-11.31 7.03-7.03a24.0428 24.0428 0 0 0 .93-32.95c.3501.30994.68.62 1.01.95l15.03 15.03z"/><path d="m216 408-11.31006 11.31006-24-24a38.59374 38.59374 0 0 0 8.37012-12.53c.16992-.41.32995-.82007.49-1.23z"/></g><path d="m224 496-72-72 24-24 96 96z" fill="#8fd1ec"/><path d="m224 496-88-88-88 88z" fill="#37a3c8"/><path d="m104 120a32 32 0 0 0 32-32 32 32 0 0 0 32 32 32 32 0 0 0 -32 32 32 32 0 0 0 -32-32z" fill="#f3c333"/><path d="m400 96a32 32 0 0 0 32-32 32 32 0 0 0 32 32 32 32 0 0 0 -32 32 32 32 0 0 0 -32-32z" fill="#f3c333"/><path d="m336 264a32 32 0 0 0 32-32 32 32 0 0 0 32 32 32 32 0 0 0 -32 32 32 32 0 0 0 -32-32z" fill="#f3c333"/><path d="m200 312 32-32 24 24a22.6274 22.6274 0 0 1 0 32 22.6274 22.6274 0 0 1 -32 0z" fill="#c9d9e5"/></g></svg>