<svg id="Capa_1" enable-background="new 0 0 512 512" height="512" viewBox="0 0 512 512" width="512" xmlns="http://www.w3.org/2000/svg"><g><path d="m126.197 346.308h78.752v44.956h-78.752z" fill="#838383"/><path d="m126.197 346.308h32.507v44.956h-32.507z" fill="#5a5a5a"/><path d="m323.992 346.308h29.006v44.956h-29.006z" fill="#838383"/><path d="m352.998 390.263h-267.299c-2.761 0-5 2.239-5 5v24.603c0 2.761 2.239 5 5 5h267.299z" fill="#9c9c9c"/><g><path d="m123.967 419.716v-24.302c0-2.845 2.306-5.151 5.151-5.151h-43.268c-2.845 0-5.151 2.306-5.151 5.151v24.302c0 2.845 2.306 5.151 5.151 5.151h43.268c-2.845 0-5.151-2.307-5.151-5.151z" fill="#838383"/></g><path d="m352.998 193.837c0-4.962 4.037-9 9-9h134.38v-132.993c0-5.523-4.477-10-10-10h-476.378c-5.523 0-10 4.477-10 10v240.382h352.998z" fill="#d8ecfe"/><path d="m131.518 291.227v-237.45c0-6.59 5.342-11.932 11.932-11.932h-38.447v249.382z" fill="#c4e2ff"/><path d="m105.003 41.844h-95.003c-5.523 0-10 4.477-10 10v239.382h105.003z" fill="#fe646f"/><path d="m32.451 53.777c0-6.59 5.342-11.932 11.932-11.932h-34.383c-5.523 0-10 4.477-10 10v239.382h32.451z" fill="#fd4755"/><path d="m352.998 291.227h-352.998v46.081c0 5.523 4.477 10 10 10h342.998z" fill="#9c9c9c"/><g><path d="m32.451 337.006v-45.779h-32.451v45.779c0 5.69 4.612 10.302 10.302 10.302h32.451c-5.69 0-10.302-4.613-10.302-10.302z" fill="#838383"/></g><g><circle cx="33.72" cy="318.074" fill="#fff" r="7.5"/></g><g><circle cx="58.72" cy="318.074" fill="#fff" r="7.5"/></g><g><circle cx="83.72" cy="318.074" fill="#fff" r="7.5"/></g><g><path d="m199.04 139.688h-44.888c-2.761 0-5-2.239-5-5v-44.888c0-2.761 2.239-5 5-5h44.888c2.761 0 5 2.239 5 5v44.888c0 2.762-2.239 5-5 5z" fill="#6cf5c2"/></g><g><path d="m170.495 133.722v-42.956c0-3.295 2.671-5.966 5.966-5.966h-22.309c-2.761 0-5 2.239-5 5v44.888c0 2.761 2.239 5 5 5h22.309c-3.295 0-5.966-2.671-5.966-5.966z" fill="#00f2a6"/></g><g><path d="m300.463 139.688h-44.888c-2.761 0-5-2.239-5-5v-44.888c0-2.761 2.239-5 5-5h44.888c2.761 0 5 2.239 5 5v44.888c0 2.762-2.238 5-5 5z" fill="#26a6fe"/></g><g><path d="m272.195 133.722v-42.956c0-3.295 2.671-5.966 5.966-5.966h-22.586c-2.761 0-5 2.239-5 5v44.888c0 2.761 2.239 5 5 5h22.586c-3.295 0-5.966-2.671-5.966-5.966z" fill="#0593fc"/></g><g><path d="m401.886 139.688h-44.888c-2.761 0-5-2.239-5-5v-44.888c0-2.761 2.239-5 5-5h44.888c2.761 0 5 2.239 5 5v44.888c0 2.762-2.238 5-5 5z" fill="#fff"/></g><g><path d="m373.342 133.722v-42.956c0-3.295 2.671-5.966 5.966-5.966h-22.309c-2.761 0-5 2.239-5 5v44.888c0 2.761 2.239 5 5 5h22.309c-3.295 0-5.966-2.671-5.966-5.966z" fill="#eaf6ff"/></g><g><path d="m199.04 238.725h-44.888c-2.761 0-5-2.239-5-5v-44.888c0-2.761 2.239-5 5-5h44.888c2.761 0 5 2.239 5 5v44.888c0 2.761-2.239 5-5 5z" fill="#fe646f"/></g><g><path d="m170.495 232.759v-42.956c0-3.295 2.671-5.966 5.966-5.966h-22.309c-2.761 0-5 2.239-5 5v44.888c0 2.761 2.239 5 5 5h22.309c-3.295 0-5.966-2.671-5.966-5.966z" fill="#fd4755"/></g><g><path d="m300.463 238.725h-44.888c-2.761 0-5-2.239-5-5v-44.888c0-2.761 2.239-5 5-5h44.888c2.761 0 5 2.239 5 5v44.888c0 2.761-2.238 5-5 5z" fill="#fed402"/></g><g><path d="m272.195 232.759v-42.956c0-3.295 2.671-5.966 5.966-5.966h-22.586c-2.761 0-5 2.239-5 5v44.888c0 2.761 2.239 5 5 5h22.586c-3.295 0-5.966-2.671-5.966-5.966z" fill="#fac600"/></g><g><path d="m69.206 83.948h-36.989c-4.143 0-7.5-3.358-7.5-7.5s3.357-7.5 7.5-7.5h36.989c4.143 0 7.5 3.358 7.5 7.5s-3.357 7.5-7.5 7.5z" fill="#fff"/></g><g><path d="m69.206 113.778h-36.989c-4.143 0-7.5-3.358-7.5-7.5s3.357-7.5 7.5-7.5h36.989c4.143 0 7.5 3.358 7.5 7.5s-3.357 7.5-7.5 7.5z" fill="#fff"/></g><g><path d="m69.206 173.439h-36.989c-4.143 0-7.5-3.358-7.5-7.5s3.357-7.5 7.5-7.5h36.989c4.143 0 7.5 3.358 7.5 7.5s-3.357 7.5-7.5 7.5z" fill="#fff"/></g><g><path d="m69.206 203.269h-36.989c-4.143 0-7.5-3.358-7.5-7.5s3.357-7.5 7.5-7.5h36.989c4.143 0 7.5 3.358 7.5 7.5s-3.357 7.5-7.5 7.5z" fill="#fff"/></g><g><path d="m69.206 262.93h-36.989c-4.143 0-7.5-3.358-7.5-7.5s3.357-7.5 7.5-7.5h36.989c4.143 0 7.5 3.358 7.5 7.5s-3.357 7.5-7.5 7.5z" fill="#fff"/></g><g><g><path d="m502 470.156h-140.001c-5.523 0-10-4.477-10-10v-266.319c0-5.523 4.477-10 10-10h140.001c5.523 0 10 4.477 10 10v266.318c0 5.523-4.477 10.001-10 10.001z" fill="#fedba6"/></g><g><path d="m384.449 459.854v-265.715c0-5.689 4.612-10.302 10.302-10.302h-32.451c-5.69 0-10.302 4.612-10.302 10.302v265.715c0 5.69 4.612 10.302 10.302 10.302h32.451c-5.69-.001-10.302-4.613-10.302-10.302z" fill="#fece85"/></g><g><g><g><path d="m477.1 293.483c-1.919 0-3.839-.732-5.304-2.197-21.942-21.943-57.648-21.944-79.593 0-2.931 2.929-7.679 2.929-10.607 0-2.929-2.929-2.929-7.678 0-10.606 27.792-27.791 73.014-27.792 100.808 0 2.929 2.929 2.929 7.678 0 10.606-1.466 1.464-3.385 2.197-5.304 2.197z" fill="#26a6fe"/></g><g><path d="m452.976 312.208c-1.919 0-3.839-.732-5.304-2.197-8.641-8.643-22.705-8.643-31.346 0-2.93 2.929-7.678 2.929-10.607 0s-2.929-7.678 0-10.606c14.492-14.491 38.068-14.491 52.561 0 2.929 2.929 2.929 7.678 0 10.606-1.466 1.465-3.385 2.197-5.304 2.197z" fill="#0593fc"/></g></g><g><circle cx="431.999" cy="326.128" fill="#0182fc" r="7.5"/></g></g></g><g><path d="m487.791 216.112h-28.334c-4.143 0-7.5-3.358-7.5-7.5s3.357-7.5 7.5-7.5h28.334c4.143 0 7.5 3.358 7.5 7.5s-3.357 7.5-7.5 7.5z" fill="#5a5a5a"/></g><g><path d="m463.217 391.984h-63.143c-2.761 0-5-2.239-5-5v-20.905c0-2.761 2.239-5 5-5h63.143c2.761 0 5 2.239 5 5v20.905c0 2.761-2.238 5-5 5z" fill="#fff"/></g><g><path d="m425.98 386.833v-20.604c0-2.845 2.306-5.151 5.151-5.151h-30.905c-2.845 0-5.151 2.306-5.151 5.151v20.604c0 2.845 2.306 5.151 5.151 5.151h30.905c-2.845 0-5.151-2.306-5.151-5.151z" fill="#eaf6ff"/></g><g><path d="m405.569 441.433c-2.528 0-4.682 1.834-5.085 4.329l-3.941 24.393h70.539l-4.362-24.476c-.438-2.458-2.575-4.247-5.071-4.247h-52.08z" fill="#9c9c9c"/></g><g><path d="m426.764 441.433h-21.195c-2.528 0-4.682 1.834-5.085 4.329l-3.941 24.393h21.195l3.941-24.393c.403-2.495 2.557-4.329 5.085-4.329z" fill="#838383"/></g></g></svg>